<?xml version="1.0" standalone="no"?>
<!DOCTYPE svg PUBLIC "-//W3C//DTD SVG 20010904//EN"
 "http://www.w3.org/TR/2001/REC-SVG-20010904/DTD/svg10.dtd">
<svg version="1.0" xmlns="http://www.w3.org/2000/svg"
 width="512.000000pt" height="512.000000pt" viewBox="0 0 512.000000 512.000000"
 preserveAspectRatio="xMidYMid meet">
<metadata>
Created by potrace 1.14, written by Peter Selinger 2001-2017
</metadata>
<g transform="translate(0.000000,512.000000) scale(0.100000,-0.100000)"
fill="#000000" stroke="none">
<path d="M2518 5106 c-29 -22 -35 -56 -34 -209 2 -136 3 -149 23 -169 29 -28
77 -28 106 0 20 20 21 32 23 169 0 82 -3 160 -8 174 -14 42 -75 62 -110 35z"/>
<path d="M1155 4534 c-44 -47 -35 -65 88 -190 129 -131 157 -145 203 -99 46
46 32 77 -87 195 -56 55 -110 105 -120 110 -30 17 -59 11 -84 -16z"/>
<path d="M3874 4545 c-48 -33 -215 -209 -220 -232 -13 -51 38 -102 91 -89 11
3 71 56 133 119 104 106 112 116 108 147 -7 59 -66 88 -112 55z"/>
<path d="M2406 4509 c-522 -60 -964 -410 -1149 -909 -186 -505 -53 -1084 335
-1456 176 -169 204 -200 240 -275 49 -102 59 -154 59 -315 1 -230 3 -214 -26
-214 -14 0 -41 -7 -61 -15 -48 -20 -63 -60 -60 -163 2 -74 5 -85 29 -110 l27
-28 -27 -26 c-25 -25 -27 -34 -29 -115 -3 -151 26 -183 165 -183 l80 0 -18
-32 c-21 -37 -27 -160 -10 -215 12 -38 48 -63 93 -65 31 -1 35 -5 46 -42 22
-75 60 -136 123 -200 103 -105 210 -147 360 -143 83 3 100 7 170 41 125 60
221 169 264 298 15 46 17 48 52 48 28 0 44 7 66 30 26 27 28 35 30 120 1 90
-9 134 -38 152 -15 9 -13 10 93 12 136 3 157 27 154 177 -2 79 -17 123 -48
135 -9 4 -5 14 15 34 30 30 32 39 31 161 0 84 -29 119 -102 124 -14 2 -30 3
-35 4 -7 1 -10 65 -9 184 1 142 5 196 20 247 26 92 79 182 143 243 145 136
261 259 308 328 114 166 187 346 228 558 19 98 24 285 11 396 -4 33 -18 105
-31 160 -77 322 -258 592 -531 795 -167 124 -384 215 -584 246 -19 3 -42 7
-50 10 -26 9 -263 11 -334 3z"/>
<path d="M614 3198 c-22 -10 -44 -47 -44 -73 0 -8 11 -26 24 -42 l24 -27 160
-1 c171 0 184 4 203 54 13 34 -6 77 -39 89 -35 13 -300 13 -328 0z"/>
<path d="M4173 3198 c-12 -6 -27 -26 -34 -45 -9 -28 -8 -38 6 -59 9 -14 25
-28 36 -32 10 -4 87 -7 170 -7 l152 1 23 28 c13 15 24 33 24 41 0 27 -23 63
-47 74 -31 14 -300 13 -330 -1z"/>
<path d="M1260 1938 c-56 -56 -109 -112 -117 -125 -33 -50 21 -123 81 -107 13
3 74 56 135 118 122 124 132 146 86 191 -46 47 -72 36 -185 -77z"/>
<path d="M3675 2015 c-46 -45 -36 -67 87 -191 61 -63 120 -117 131 -120 48
-15 108 46 92 95 -4 12 -56 71 -117 131 -122 122 -147 132 -193 85z"/>
</g>
</svg>
